<mxfile host="Electron" modified="2024-08-03T11:50:44.120Z" agent="Mozilla/5.0 (Macintosh; Intel Mac OS X 10_15_7) AppleWebKit/537.36 (KHTML, like Gecko) draw.io/24.2.5 Chrome/120.0.6099.109 Electron/28.1.0 Safari/537.36" etag="Ef0DnndCLUC2eDWeLz_M" version="24.2.5" type="device">
  <diagram name="Seite-1" id="eLHYZsrOj006P_QwYcE3">
    <mxGraphModel dx="2074" dy="907" grid="1" gridSize="10" guides="1" tooltips="1" connect="1" arrows="1" fold="1" page="1" pageScale="1" pageWidth="827" pageHeight="1169" math="0" shadow="0">
      <root>
        <mxCell id="0" />
        <mxCell id="1" parent="0" />
        <mxCell id="QJ2HcBKgGoxrz4g2xdpN-49" value="" style="rounded=1;whiteSpace=wrap;html=1;fillColor=#dae8fc;strokeColor=#6c8ebf;" vertex="1" parent="1">
          <mxGeometry x="880" y="480" width="300" height="275" as="geometry" />
        </mxCell>
        <mxCell id="QJ2HcBKgGoxrz4g2xdpN-33" value="" style="rounded=1;whiteSpace=wrap;html=1;fillColor=#ffe6cc;strokeColor=#d79b00;" vertex="1" parent="1">
          <mxGeometry x="120" y="130" width="680" height="440" as="geometry" />
        </mxCell>
        <mxCell id="QJ2HcBKgGoxrz4g2xdpN-1" value="&lt;font style=&quot;font-size: 22px;&quot;&gt;Application workflow&lt;/font&gt;" style="text;html=1;align=center;verticalAlign=middle;resizable=0;points=[];autosize=1;strokeColor=#6c8ebf;fillColor=#dae8fc;" vertex="1" parent="1">
          <mxGeometry x="240" y="40" width="220" height="40" as="geometry" />
        </mxCell>
        <mxCell id="QJ2HcBKgGoxrz4g2xdpN-14" style="edgeStyle=orthogonalEdgeStyle;rounded=0;orthogonalLoop=1;jettySize=auto;html=1;exitX=0.5;exitY=0.5;exitDx=0;exitDy=0;exitPerimeter=0;entryX=0;entryY=0.5;entryDx=0;entryDy=0;" edge="1" parent="1" source="QJ2HcBKgGoxrz4g2xdpN-2" target="QJ2HcBKgGoxrz4g2xdpN-11">
          <mxGeometry relative="1" as="geometry" />
        </mxCell>
        <mxCell id="QJ2HcBKgGoxrz4g2xdpN-2" value="Shop A" style="shape=umlActor;verticalLabelPosition=bottom;verticalAlign=top;html=1;outlineConnect=0;" vertex="1" parent="1">
          <mxGeometry x="40" y="170" width="30" height="60" as="geometry" />
        </mxCell>
        <mxCell id="QJ2HcBKgGoxrz4g2xdpN-16" style="edgeStyle=orthogonalEdgeStyle;rounded=0;orthogonalLoop=1;jettySize=auto;html=1;exitX=0.5;exitY=0.5;exitDx=0;exitDy=0;exitPerimeter=0;entryX=0;entryY=0.5;entryDx=0;entryDy=0;" edge="1" parent="1" source="QJ2HcBKgGoxrz4g2xdpN-3" target="QJ2HcBKgGoxrz4g2xdpN-12">
          <mxGeometry relative="1" as="geometry" />
        </mxCell>
        <mxCell id="QJ2HcBKgGoxrz4g2xdpN-3" value="Shop C" style="shape=umlActor;verticalLabelPosition=bottom;verticalAlign=top;html=1;outlineConnect=0;" vertex="1" parent="1">
          <mxGeometry x="40" y="430" width="30" height="60" as="geometry" />
        </mxCell>
        <mxCell id="QJ2HcBKgGoxrz4g2xdpN-15" style="edgeStyle=orthogonalEdgeStyle;rounded=0;orthogonalLoop=1;jettySize=auto;html=1;exitX=0.5;exitY=0.5;exitDx=0;exitDy=0;exitPerimeter=0;entryX=0;entryY=0.5;entryDx=0;entryDy=0;" edge="1" parent="1" source="QJ2HcBKgGoxrz4g2xdpN-4" target="QJ2HcBKgGoxrz4g2xdpN-13">
          <mxGeometry relative="1" as="geometry" />
        </mxCell>
        <mxCell id="QJ2HcBKgGoxrz4g2xdpN-4" value="Shop B" style="shape=umlActor;verticalLabelPosition=bottom;verticalAlign=top;html=1;outlineConnect=0;" vertex="1" parent="1">
          <mxGeometry x="40" y="300" width="30" height="60" as="geometry" />
        </mxCell>
        <mxCell id="QJ2HcBKgGoxrz4g2xdpN-25" style="edgeStyle=orthogonalEdgeStyle;rounded=0;orthogonalLoop=1;jettySize=auto;html=1;exitX=1;exitY=0.5;exitDx=0;exitDy=0;entryX=0;entryY=0.5;entryDx=0;entryDy=0;" edge="1" parent="1" source="QJ2HcBKgGoxrz4g2xdpN-11" target="QJ2HcBKgGoxrz4g2xdpN-24">
          <mxGeometry relative="1" as="geometry" />
        </mxCell>
        <mxCell id="QJ2HcBKgGoxrz4g2xdpN-11" value="Shop A&amp;nbsp;&lt;div&gt;Adapter&lt;/div&gt;" style="rounded=0;whiteSpace=wrap;html=1;" vertex="1" parent="1">
          <mxGeometry x="160" y="140" width="80" height="120" as="geometry" />
        </mxCell>
        <mxCell id="QJ2HcBKgGoxrz4g2xdpN-27" style="edgeStyle=orthogonalEdgeStyle;rounded=0;orthogonalLoop=1;jettySize=auto;html=1;exitX=1;exitY=0.5;exitDx=0;exitDy=0;entryX=0;entryY=0.5;entryDx=0;entryDy=0;" edge="1" parent="1" source="QJ2HcBKgGoxrz4g2xdpN-12" target="QJ2HcBKgGoxrz4g2xdpN-24">
          <mxGeometry relative="1" as="geometry" />
        </mxCell>
        <mxCell id="QJ2HcBKgGoxrz4g2xdpN-12" value="Shop C&lt;div&gt;Adapter&lt;/div&gt;" style="rounded=0;whiteSpace=wrap;html=1;" vertex="1" parent="1">
          <mxGeometry x="160" y="400" width="80" height="120" as="geometry" />
        </mxCell>
        <mxCell id="QJ2HcBKgGoxrz4g2xdpN-26" style="edgeStyle=orthogonalEdgeStyle;rounded=0;orthogonalLoop=1;jettySize=auto;html=1;exitX=1;exitY=0.5;exitDx=0;exitDy=0;entryX=0;entryY=0.5;entryDx=0;entryDy=0;" edge="1" parent="1" source="QJ2HcBKgGoxrz4g2xdpN-13" target="QJ2HcBKgGoxrz4g2xdpN-24">
          <mxGeometry relative="1" as="geometry">
            <mxPoint x="320" y="320" as="targetPoint" />
          </mxGeometry>
        </mxCell>
        <mxCell id="QJ2HcBKgGoxrz4g2xdpN-13" value="Shop B&lt;div&gt;Adapter&lt;/div&gt;" style="rounded=0;whiteSpace=wrap;html=1;" vertex="1" parent="1">
          <mxGeometry x="160" y="270" width="80" height="120" as="geometry" />
        </mxCell>
        <mxCell id="QJ2HcBKgGoxrz4g2xdpN-17" style="edgeStyle=orthogonalEdgeStyle;rounded=0;orthogonalLoop=1;jettySize=auto;html=1;exitX=0.5;exitY=1;exitDx=0;exitDy=0;" edge="1" parent="1" source="QJ2HcBKgGoxrz4g2xdpN-11" target="QJ2HcBKgGoxrz4g2xdpN-11">
          <mxGeometry relative="1" as="geometry" />
        </mxCell>
        <mxCell id="QJ2HcBKgGoxrz4g2xdpN-19" value="DB&lt;div&gt;Products&lt;/div&gt;&lt;div&gt;Users&lt;/div&gt;&lt;div&gt;Payments&lt;/div&gt;" style="shape=cylinder3;whiteSpace=wrap;html=1;boundedLbl=1;backgroundOutline=1;size=15;" vertex="1" parent="1">
          <mxGeometry x="520" y="255" width="90" height="150" as="geometry" />
        </mxCell>
        <mxCell id="QJ2HcBKgGoxrz4g2xdpN-22" value="" style="ellipse;shape=cloud;whiteSpace=wrap;html=1;fillColor=#dae8fc;strokeColor=#6c8ebf;" vertex="1" parent="1">
          <mxGeometry x="271" y="570" width="206" height="150" as="geometry" />
        </mxCell>
        <mxCell id="QJ2HcBKgGoxrz4g2xdpN-52" style="edgeStyle=orthogonalEdgeStyle;rounded=0;orthogonalLoop=1;jettySize=auto;html=1;exitX=1;exitY=0.5;exitDx=0;exitDy=0;exitPerimeter=0;entryX=0;entryY=0.75;entryDx=0;entryDy=0;" edge="1" parent="1" source="QJ2HcBKgGoxrz4g2xdpN-23" target="QJ2HcBKgGoxrz4g2xdpN-51">
          <mxGeometry relative="1" as="geometry" />
        </mxCell>
        <mxCell id="QJ2HcBKgGoxrz4g2xdpN-23" value="ElasticSearch" style="shape=cylinder3;whiteSpace=wrap;html=1;boundedLbl=1;backgroundOutline=1;size=15;" vertex="1" parent="1">
          <mxGeometry x="331" y="605" width="86" height="80" as="geometry" />
        </mxCell>
        <mxCell id="QJ2HcBKgGoxrz4g2xdpN-24" value="DB Sychronizer" style="rounded=0;whiteSpace=wrap;html=1;" vertex="1" parent="1">
          <mxGeometry x="331" y="250" width="120" height="160" as="geometry" />
        </mxCell>
        <mxCell id="QJ2HcBKgGoxrz4g2xdpN-28" style="edgeStyle=orthogonalEdgeStyle;rounded=0;orthogonalLoop=1;jettySize=auto;html=1;exitX=1;exitY=0.5;exitDx=0;exitDy=0;entryX=0;entryY=0.5;entryDx=0;entryDy=0;entryPerimeter=0;" edge="1" parent="1" source="QJ2HcBKgGoxrz4g2xdpN-24" target="QJ2HcBKgGoxrz4g2xdpN-19">
          <mxGeometry relative="1" as="geometry" />
        </mxCell>
        <mxCell id="QJ2HcBKgGoxrz4g2xdpN-31" style="edgeStyle=orthogonalEdgeStyle;rounded=0;orthogonalLoop=1;jettySize=auto;html=1;exitX=0.5;exitY=1;exitDx=0;exitDy=0;" edge="1" parent="1" source="QJ2HcBKgGoxrz4g2xdpN-29" target="QJ2HcBKgGoxrz4g2xdpN-23">
          <mxGeometry relative="1" as="geometry" />
        </mxCell>
        <mxCell id="QJ2HcBKgGoxrz4g2xdpN-29" value="ElasticSearch&lt;div&gt;Updater&lt;/div&gt;" style="whiteSpace=wrap;html=1;aspect=fixed;" vertex="1" parent="1">
          <mxGeometry x="334" y="460" width="80" height="80" as="geometry" />
        </mxCell>
        <mxCell id="QJ2HcBKgGoxrz4g2xdpN-30" value="" style="endArrow=classic;startArrow=classic;html=1;rounded=0;exitX=1;exitY=0.5;exitDx=0;exitDy=0;entryX=0.5;entryY=1;entryDx=0;entryDy=0;entryPerimeter=0;" edge="1" parent="1" source="QJ2HcBKgGoxrz4g2xdpN-29" target="QJ2HcBKgGoxrz4g2xdpN-19">
          <mxGeometry width="50" height="50" relative="1" as="geometry">
            <mxPoint x="560" y="580" as="sourcePoint" />
            <mxPoint x="610" y="530" as="targetPoint" />
            <Array as="points">
              <mxPoint x="565" y="500" />
            </Array>
          </mxGeometry>
        </mxCell>
        <mxCell id="QJ2HcBKgGoxrz4g2xdpN-34" value="" style="rounded=1;whiteSpace=wrap;html=1;fillColor=#f5f5f5;fontColor=#333333;strokeColor=#666666;" vertex="1" parent="1">
          <mxGeometry x="880" y="160" width="300" height="260" as="geometry" />
        </mxCell>
        <mxCell id="QJ2HcBKgGoxrz4g2xdpN-47" style="edgeStyle=orthogonalEdgeStyle;rounded=0;orthogonalLoop=1;jettySize=auto;html=1;exitX=0.5;exitY=0.5;exitDx=0;exitDy=0;exitPerimeter=0;" edge="1" parent="1" source="QJ2HcBKgGoxrz4g2xdpN-35" target="QJ2HcBKgGoxrz4g2xdpN-42">
          <mxGeometry relative="1" as="geometry" />
        </mxCell>
        <mxCell id="QJ2HcBKgGoxrz4g2xdpN-66" value="LAN" style="edgeLabel;html=1;align=center;verticalAlign=middle;resizable=0;points=[];" vertex="1" connectable="0" parent="QJ2HcBKgGoxrz4g2xdpN-47">
          <mxGeometry x="-0.1556" relative="1" as="geometry">
            <mxPoint as="offset" />
          </mxGeometry>
        </mxCell>
        <mxCell id="QJ2HcBKgGoxrz4g2xdpN-35" value="PAX" style="shape=umlActor;verticalLabelPosition=bottom;verticalAlign=top;html=1;outlineConnect=0;" vertex="1" parent="1">
          <mxGeometry x="1280" y="230" width="30" height="60" as="geometry" />
        </mxCell>
        <mxCell id="QJ2HcBKgGoxrz4g2xdpN-39" value="Cloud based services" style="text;html=1;align=center;verticalAlign=middle;whiteSpace=wrap;rounded=0;fillColor=none;glass=0;fontStyle=1;labelBorderColor=default;" vertex="1" parent="1">
          <mxGeometry x="320" y="130" width="200" height="30" as="geometry" />
        </mxCell>
        <mxCell id="QJ2HcBKgGoxrz4g2xdpN-40" value="&lt;b&gt;local solution (demo)&lt;/b&gt;" style="text;html=1;align=center;verticalAlign=middle;whiteSpace=wrap;rounded=0;" vertex="1" parent="1">
          <mxGeometry x="920" y="160" width="130" height="30" as="geometry" />
        </mxCell>
        <mxCell id="QJ2HcBKgGoxrz4g2xdpN-61" style="edgeStyle=orthogonalEdgeStyle;rounded=0;orthogonalLoop=1;jettySize=auto;html=1;exitX=0;exitY=0.5;exitDx=0;exitDy=0;entryX=1;entryY=0.5;entryDx=0;entryDy=0;" edge="1" parent="1" source="QJ2HcBKgGoxrz4g2xdpN-42" target="QJ2HcBKgGoxrz4g2xdpN-60">
          <mxGeometry relative="1" as="geometry" />
        </mxCell>
        <mxCell id="QJ2HcBKgGoxrz4g2xdpN-42" value="UI" style="whiteSpace=wrap;html=1;aspect=fixed;" vertex="1" parent="1">
          <mxGeometry x="1080" y="220" width="80" height="80" as="geometry" />
        </mxCell>
        <mxCell id="QJ2HcBKgGoxrz4g2xdpN-43" value="local DB" style="shape=cylinder3;whiteSpace=wrap;html=1;boundedLbl=1;backgroundOutline=1;size=15;" vertex="1" parent="1">
          <mxGeometry x="990" y="300" width="70" height="110" as="geometry" />
        </mxCell>
        <mxCell id="QJ2HcBKgGoxrz4g2xdpN-50" value="&lt;b&gt;cloud based solution&lt;/b&gt;" style="text;html=1;align=center;verticalAlign=middle;whiteSpace=wrap;rounded=0;" vertex="1" parent="1">
          <mxGeometry x="930" y="485" width="150" height="30" as="geometry" />
        </mxCell>
        <mxCell id="QJ2HcBKgGoxrz4g2xdpN-59" style="edgeStyle=orthogonalEdgeStyle;rounded=0;orthogonalLoop=1;jettySize=auto;html=1;exitX=0;exitY=0.25;exitDx=0;exitDy=0;entryX=0.75;entryY=1;entryDx=0;entryDy=0;" edge="1" parent="1" source="QJ2HcBKgGoxrz4g2xdpN-51" target="QJ2HcBKgGoxrz4g2xdpN-57">
          <mxGeometry relative="1" as="geometry" />
        </mxCell>
        <mxCell id="QJ2HcBKgGoxrz4g2xdpN-51" value="UI" style="whiteSpace=wrap;html=1;aspect=fixed;" vertex="1" parent="1">
          <mxGeometry x="990" y="585" width="80" height="80" as="geometry" />
        </mxCell>
        <mxCell id="QJ2HcBKgGoxrz4g2xdpN-57" value="Public API Server" style="whiteSpace=wrap;html=1;aspect=fixed;" vertex="1" parent="1">
          <mxGeometry x="660" y="275" width="110" height="110" as="geometry" />
        </mxCell>
        <mxCell id="QJ2HcBKgGoxrz4g2xdpN-58" value="" style="endArrow=classic;startArrow=classic;html=1;rounded=0;exitX=1;exitY=0.5;exitDx=0;exitDy=0;exitPerimeter=0;entryX=0;entryY=0.5;entryDx=0;entryDy=0;" edge="1" parent="1" source="QJ2HcBKgGoxrz4g2xdpN-19" target="QJ2HcBKgGoxrz4g2xdpN-57">
          <mxGeometry width="50" height="50" relative="1" as="geometry">
            <mxPoint x="910" y="500" as="sourcePoint" />
            <mxPoint x="960" y="450" as="targetPoint" />
          </mxGeometry>
        </mxCell>
        <mxCell id="QJ2HcBKgGoxrz4g2xdpN-63" style="edgeStyle=orthogonalEdgeStyle;rounded=0;orthogonalLoop=1;jettySize=auto;html=1;exitX=0;exitY=0.5;exitDx=0;exitDy=0;entryX=1;entryY=0.5;entryDx=0;entryDy=0;" edge="1" parent="1" source="QJ2HcBKgGoxrz4g2xdpN-60" target="QJ2HcBKgGoxrz4g2xdpN-57">
          <mxGeometry relative="1" as="geometry">
            <Array as="points">
              <mxPoint x="850" y="260" />
              <mxPoint x="850" y="330" />
            </Array>
          </mxGeometry>
        </mxCell>
        <mxCell id="QJ2HcBKgGoxrz4g2xdpN-60" value="local API server" style="whiteSpace=wrap;html=1;aspect=fixed;" vertex="1" parent="1">
          <mxGeometry x="900" y="220" width="80" height="80" as="geometry" />
        </mxCell>
        <mxCell id="QJ2HcBKgGoxrz4g2xdpN-62" value="" style="endArrow=classic;startArrow=classic;html=1;rounded=0;entryX=0.75;entryY=1;entryDx=0;entryDy=0;exitX=0;exitY=0.5;exitDx=0;exitDy=0;exitPerimeter=0;" edge="1" parent="1" source="QJ2HcBKgGoxrz4g2xdpN-43" target="QJ2HcBKgGoxrz4g2xdpN-60">
          <mxGeometry width="50" height="50" relative="1" as="geometry">
            <mxPoint x="910" y="440" as="sourcePoint" />
            <mxPoint x="960" y="390" as="targetPoint" />
            <Array as="points">
              <mxPoint x="960" y="355" />
            </Array>
          </mxGeometry>
        </mxCell>
        <mxCell id="QJ2HcBKgGoxrz4g2xdpN-65" style="edgeStyle=orthogonalEdgeStyle;rounded=0;orthogonalLoop=1;jettySize=auto;html=1;exitX=0.5;exitY=0.5;exitDx=0;exitDy=0;exitPerimeter=0;entryX=1;entryY=0.5;entryDx=0;entryDy=0;" edge="1" parent="1" source="QJ2HcBKgGoxrz4g2xdpN-64" target="QJ2HcBKgGoxrz4g2xdpN-51">
          <mxGeometry relative="1" as="geometry" />
        </mxCell>
        <mxCell id="QJ2HcBKgGoxrz4g2xdpN-67" value="WIFI" style="edgeLabel;html=1;align=center;verticalAlign=middle;resizable=0;points=[];" vertex="1" connectable="0" parent="QJ2HcBKgGoxrz4g2xdpN-65">
          <mxGeometry x="-0.3867" y="1" relative="1" as="geometry">
            <mxPoint as="offset" />
          </mxGeometry>
        </mxCell>
        <mxCell id="QJ2HcBKgGoxrz4g2xdpN-64" value="PAX" style="shape=umlActor;verticalLabelPosition=bottom;verticalAlign=top;html=1;outlineConnect=0;" vertex="1" parent="1">
          <mxGeometry x="1280" y="595" width="30" height="60" as="geometry" />
        </mxCell>
      </root>
    </mxGraphModel>
  </diagram>
</mxfile>
